<svg width="30" height="30" viewBox="0 0 30 30" fill="none" xmlns="http://www.w3.org/2000/svg">
<path d="M24.466 17.0866C19.8707 17.2658 15.5201 18.4607 11.6437 20.4411L6.6592 23.3193C5.34097 24.0794 3.65748 23.6232 2.90096 22.3118L0.367763 17.9254C-0.390385 16.6116 0.0615035 14.9253 1.37529 14.1672L5.50497 11.7825C5.74411 11.6445 6.04993 11.7263 6.18806 11.9655L9.43303 17.586C9.57353 17.8293 9.88766 17.9101 10.1288 17.7615C10.362 17.6177 10.4257 17.3053 10.2887 17.0681L7.02027 11.407C6.89045 11.1821 6.9542 10.895 7.16765 10.7471C10.5769 8.38337 13.4613 5.37284 15.6763 1.8618C16.5155 0.530577 18.4709 0.566202 19.2596 1.9318L26.1966 13.9484C26.985 15.3111 26.0411 17.0254 24.466 17.0866ZM25.3561 8.7175C25.6129 7.24758 24.7514 5.77329 23.3589 5.26865C22.9212 5.11002 22.5242 5.58635 22.7569 5.98955C23.3109 6.94939 23.8669 7.91254 24.4291 8.88594C24.664 9.29252 25.2753 9.18008 25.3561 8.7175ZM13.8138 26.41L11.441 22.291C11.3031 22.0516 10.9969 21.9695 10.7576 22.1076C9.47159 22.8495 9.42296 22.8784 7.7076 23.8685C7.46841 24.0066 7.38615 24.3126 7.52428 24.5518L9.90117 28.6682C10.2059 29.1953 10.7538 29.482 11.3118 29.482C11.8531 29.482 12.0601 29.2989 13.2188 28.6301C13.995 28.1819 14.2619 27.1857 13.8138 26.41ZM29.007 4.91564C29.2461 4.77758 29.3281 4.47175 29.19 4.23262C29.052 3.99355 28.7463 3.91149 28.507 4.04962L27.2132 4.79658C26.7705 5.05221 26.9557 5.72973 27.4637 5.72973C27.6416 5.72967 27.6059 5.72454 29.007 4.91564ZM24.4092 2.32463L24.7247 1.14734C24.7962 0.880587 24.6379 0.606454 24.3712 0.534952C24.1043 0.463575 23.8303 0.621767 23.7588 0.888524L23.4432 2.06581C23.3583 2.38282 23.5972 2.69539 23.9265 2.69539C24.1473 2.69533 24.3493 2.54801 24.4092 2.32463ZM29.9829 10.2547C30.0544 9.98791 29.896 9.71372 29.6293 9.64228L28.452 9.32683C28.1853 9.25552 27.9111 9.41371 27.8396 9.6804C27.7681 9.9471 27.9264 10.2213 28.1931 10.2928C29.4807 10.6378 29.41 10.6254 29.5002 10.6254C29.7209 10.6254 29.923 10.4781 29.9829 10.2547Z" fill="white"/>
</svg>
